<svg xmlns="http://www.w3.org/2000/svg" viewBox="0 0 20 20" fill="#337ea9"><path d="M5.313 16.094c0 .778-.629 1.406-1.407 1.406A1.404 1.404 0 0 1 2.5 16.094a1.405 1.405 0 1 1 2.812 0m12.812-4.844a4.376 4.376 0 0 1-5.284 4.278 4.36 4.36 0 0 1-3.153 1.347 4.38 4.38 0 0 1-4.194-3.131 3.746 3.746 0 0 1-1.416-7.156 4.995 4.995 0 0 1 8.525-3.244 3.126 3.126 0 0 1 4.272 2.906c0 .572-.156 1.103-.422 1.563a4.37 4.37 0 0 1 1.672 3.437M7.5 9.375a1.25 1.25 0 1 0-2.5 0 1.25 1.25 0 0 0 2.5 0m3.75 0a1.25 1.25 0 1 0-2.5 0 1.25 1.25 0 0 0 2.5 0m3.75 0a1.25 1.25 0 1 0-2.5 0 1.25 1.25 0 0 0 2.5 0" fill="#337ea9"></path></svg>